<svg id="visual" viewBox="0 0 900 600" width="900" height="600" xmlns="http://www.w3.org/2000/svg" xmlns:xlink="http://www.w3.org/1999/xlink" version="1.1"><path d="M0 85L82 85L82 79L164 79L164 79L245 79L245 73L327 73L327 43L409 43L409 103L491 103L491 43L573 43L573 85L655 85L655 121L736 121L736 133L818 133L818 85L900 85L900 91L900 0L900 0L818 0L818 0L736 0L736 0L655 0L655 0L573 0L573 0L491 0L491 0L409 0L409 0L327 0L327 0L245 0L245 0L164 0L164 0L82 0L82 0L0 0Z" fill="#b0235f"></path><path d="M0 307L82 307L82 199L164 199L164 247L245 247L245 223L327 223L327 253L409 253L409 229L491 229L491 289L573 289L573 283L655 283L655 319L736 319L736 337L818 337L818 367L900 367L900 235L900 89L900 83L818 83L818 131L736 131L736 119L655 119L655 83L573 83L573 41L491 41L491 101L409 101L409 41L327 41L327 71L245 71L245 77L164 77L164 77L82 77L82 83L0 83Z" fill="#c53762"></path><path d="M0 355L82 355L82 247L164 247L164 313L245 313L245 313L327 313L327 313L409 313L409 271L491 271L491 325L573 325L573 349L655 349L655 373L736 373L736 385L818 385L818 421L900 421L900 331L900 233L900 365L818 365L818 335L736 335L736 317L655 317L655 281L573 281L573 287L491 287L491 227L409 227L409 251L327 251L327 221L245 221L245 245L164 245L164 197L82 197L82 305L0 305Z" fill="#d84a64"></path><path d="M0 511L82 511L82 445L164 445L164 511L245 511L245 529L327 529L327 427L409 427L409 439L491 439L491 481L573 481L573 505L655 505L655 499L736 499L736 535L818 535L818 547L900 547L900 487L900 329L900 419L818 419L818 383L736 383L736 371L655 371L655 347L573 347L573 323L491 323L491 269L409 269L409 311L327 311L327 311L245 311L245 311L164 311L164 245L82 245L82 353L0 353Z" fill="#ea5e66"></path><path d="M0 601L82 601L82 601L164 601L164 601L245 601L245 601L327 601L327 601L409 601L409 601L491 601L491 601L573 601L573 601L655 601L655 601L736 601L736 601L818 601L818 601L900 601L900 601L900 485L900 545L818 545L818 533L736 533L736 497L655 497L655 503L573 503L573 479L491 479L491 437L409 437L409 425L327 425L327 527L245 527L245 509L164 509L164 443L82 443L82 509L0 509Z" fill="#fa7268"></path></svg>